<svg id="Layer_1" data-name="Layer 1" xmlns="http://www.w3.org/2000/svg" viewBox="0 0 508.9 812.86"><defs><style>.cls-1{fill:#ea5b0c;}.cls-1,.cls-2,.cls-3{stroke:#1d1d1b;stroke-miterlimit:10;}.cls-2{fill:#fff;}.cls-3{fill:none;}</style></defs><path class="cls-1" d="M363.77,436.85V893c0,62.36,105.77,112.92,236.23,112.92S836.23,955.37,836.23,893V436.85Z" transform="translate(-345.55 -193.57)"/><path class="cls-2" d="M804,467.73c.14-1.47.22-2.94.22-4.43,0-53.95-91.5-97.69-204.36-97.69S395.47,409.35,395.47,463.3c0,1.49.08,3,.22,4.43h-.22V866.05H396c-.12,1.33-.19,2.67-.19,4,0,53.95,91.5,97.69,204.36,97.69S804.53,924,804.53,870.07c0-1.35-.07-2.69-.19-4h.19V467.73Z" transform="translate(-345.55 -193.57)"/><path class="cls-2" d="M790.77,315.46C744.23,290.16,676,274.19,600,274.19s-144.23,16-190.77,41.27H346.05v80.12c0,67,113.7,121.39,254,121.39s254-54.35,254-121.39V315.46Z" transform="translate(-345.55 -193.57)"/><line class="cls-3" x1="254.25" y1="190.28" x2="254.64" y2="323.4"/><line class="cls-3" x1="404.25" y1="166.48" x2="404.64" y2="299.6"/><line class="cls-3" x1="104.25" y1="166.48" x2="104.64" y2="299.6"/><line class="cls-3" x1="54.25" y1="143.48" x2="54.64" y2="276.6"/><line class="cls-3" x1="454.25" y1="143.48" x2="454.64" y2="276.6"/><path class="cls-3" d="M850.2,418.17" transform="translate(-345.55 -193.57)"/><path class="cls-3" d="M849.87,307.06" transform="translate(-345.55 -193.57)"/><line class="cls-3" x1="204.25" y1="188.48" x2="204.64" y2="321.6"/><line class="cls-3" x1="304.25" y1="188.48" x2="304.64" y2="321.6"/><line class="cls-3" x1="354.25" y1="180.48" x2="354.64" y2="313.6"/><line class="cls-3" x1="154.25" y1="180.48" x2="154.64" y2="313.6"/><path class="cls-2" d="M432.32,833.69c0,44.27,75.07,80.15,167.68,80.15" transform="translate(-345.55 -193.57)"/><path class="cls-2" d="M767.68,833.69c0,44.27-75.07,80.15-167.68,80.15" transform="translate(-345.55 -193.57)"/><line class="cls-3" x1="21.25" y1="117.87" x2="21.64" y2="250.99"/><line class="cls-3" x1="487.25" y1="116.87" x2="487.64" y2="249.99"/><path class="cls-2" d="M432.32,753.54c0,44.26,75.07,80.15,167.68,80.15" transform="translate(-345.55 -193.57)"/><path class="cls-2" d="M767.68,753.54c0,44.26-75.07,80.15-167.68,80.15" transform="translate(-345.55 -193.57)"/><path class="cls-2" d="M432.32,673.38c0,44.27,75.07,80.16,167.68,80.16" transform="translate(-345.55 -193.57)"/><path class="cls-2" d="M767.68,673.38c0,44.27-75.07,80.16-167.68,80.16" transform="translate(-345.55 -193.57)"/><path class="cls-2" d="M432.32,593.23c0,44.27,75.07,80.15,167.68,80.15" transform="translate(-345.55 -193.57)"/><path class="cls-2" d="M767.68,593.23c0,44.27-75.07,80.15-167.68,80.15" transform="translate(-345.55 -193.57)"/><path class="cls-2" d="M432.32,513.08c0,44.26,75.07,80.15,167.68,80.15" transform="translate(-345.55 -193.57)"/><path class="cls-2" d="M767.68,513.08c0,44.26-75.07,80.15-167.68,80.15" transform="translate(-345.55 -193.57)"/><ellipse class="cls-2" cx="254.45" cy="121.89" rx="253.95" ry="121.39"/></svg>